PathFileType	4	(X/Y/Z)	Patient4_TMGait_0pt7_02_left_10.trc.trc
DataRate	CameraRate	NumFrames	NumMarkers	Units	OrigDataRate	OrigDataStartFrame	OrigNumFrames
85.365853658537	85.365853658537	5	33	mm	85.365853658537	53	       141
Frame#	Time	Sacral			L.Shoulder			Chest			R.Shoulder			Neck			R.ASIS			L.ASIS			R.Thigh.Superior			R.Thigh.Lateral			R.Thigh.Inferior			R.Patella			L.Thigh.Superior			L.Thigh.Lateral			L.Thigh.Inferior			L.Patella			L.Shank.Superior			L.Shank.Lateral			L.Shank.Inferior			R.Shank.Superior			R.Shank.Lateral			R.Shank.Inferior			R.Heel			R.Midfoot.Superior			R.Midfoot.Lateral			R.Toe			L.Heel			L.Midfoot.Lateral			L.Midfoot.Superior			L.Toe			L.Elbow			L.Wrist			R.Elbow			R.Wrist			
		X1	Y1	Z1	X2	Y2	Z2	X3	Y3	Z3	X4	Y4	Z4	X5	Y5	Z5	X6	Y6	Z6	X7	Y7	Z7	X8	Y8	Z8	X9	Y9	Z9	X10	Y10	Z10	X11	Y11	Z11	X12	Y12	Z12	X13	Y13	Z13	X14	Y14	Z14	X15	Y15	Z15	X16	Y16	Z16	X17	Y17	Z17	X18	Y18	Z18	X19	Y19	Z19	X20	Y20	Z20	X21	Y21	Z21	X22	Y22	Z22	X23	Y23	Z23	X24	Y24	Z24	X25	Y25	Z25	X26	Y26	Z26	X27	Y27	Z27	X28	Y28	Z28	X29	Y29	Z29	X30	Y30	Z30	X31	Y31	Z31	X32	Y32	Z32	X33	Y33	Z33	

53	11.659142857143	772.088163961525	1016.372347204267	435.093265995109	971.066479021347	1433.671808607710	249.962486686281	1069.682672304444	1360.575257081388	413.047898668038	990.139176202112	1445.655364312954	583.981811071284	977.233085274046	1497.150430439347	402.504943450699	993.057155591370	948.124505744254	558.700919992562	990.042044745557	963.138717232148	284.684301840898	1077.155916461088	782.795681503013	537.765453591257	1036.198737441170	662.168626550325	613.162559004070	1132.513332286501	624.261238543058	540.821875979138	1151.312433868562	509.530636455351	564.936589423984	1033.941745857649	752.403598548167	315.981654587031	940.392034825333	639.391173961498	259.631669493825	1020.037219265011	559.502990882415	325.103994523779	1018.011976494650	490.868028308380	337.073191269974	991.444506969951	419.718537135132	329.452730759204	902.869103481977	304.658203003022	279.679832178807	951.569689292512	194.879953360847	354.450187586842	1072.121342776926	436.067900154817	567.015243284870	944.791310073068	402.021798000854	617.597658981841	930.712402004054	292.955243513419	568.819526244546	731.144148988930	241.390596014129	526.696864434479	893.112685133522	171.375751466414	577.024558808825	780.955571021674	175.779133560663	601.747114680550	947.932494862944	53.547152126463	602.483567246485	820.728553782233	39.656293679221	396.595496197820	897.056508842359	36.098418078631	317.920034840496	980.014604974541	96.264187610869	346.487090094616	1109.109379640034	41.047965386456	322.142584532480	937.957085661458	1087.998136266424	122.499530078967	1095.068518989137	877.983601955510	122.538333442898	991.672234759451	1102.293019870894	715.059368673040	1219.511015397211	981.784033768562	700.139107080043	
54	11.670857142857	770.277858183533	1017.003985854402	434.092803519218	971.466241236664	1434.208642330325	249.578784253823	1068.715793793548	1360.847313982568	413.319720566806	988.134198364634	1446.005722988793	583.709964710782	976.555234077955	1497.561386052065	402.122443575626	990.869979661042	949.017761168189	558.546228113897	988.689153060746	963.674519192181	284.405055120212	1077.486247199865	787.013371833785	537.527223298910	1039.365278643768	665.616201831409	613.100569137263	1136.328040362867	629.687633255364	540.598357163231	1158.026551148080	515.733584499415	564.743278061830	1029.767023298751	751.563244856048	316.447899746221	934.966159500489	639.761213934856	259.165415317021	1012.968329626296	558.804596865464	325.021686836967	1009.921323054596	490.433958824160	336.917905323763	983.537769606841	419.717261216669	329.107843824868	894.806384833483	304.771772114680	279.346251579196	943.452814068913	194.988458303534	354.216665604143	1081.377246153710	439.961959345873	566.966816867613	955.642699437442	401.002256012569	617.905256158021	945.663609313664	291.387253951692	569.143743218845	748.056025307029	231.922788721185	527.816793800671	913.177902680045	168.671792181905	577.758528594083	800.788804105766	168.107268012132	602.406955616386	972.559297391490	52.883771938313	602.063025009069	812.411170864419	39.701959647011	396.556246891897	888.777535619685	36.094249197344	317.901557986221	971.748998240244	96.272605222218	346.386182954914	1100.820899028913	41.019083304096	322.103040875772	945.616676473749	1088.868767284611	120.059408168021	1114.272329758409	888.206218967278	120.874829646156	980.773363288719	1102.327987436178	714.957401516501	1198.408616091706	962.895553389576	704.930532623277	
55	11.682571428571	768.496377129871	1017.477614702024	433.244042306935	971.938270342640	1434.634121636215	249.322511079488	1067.794039659842	1360.968430978020	413.700873516195	986.181379521869	1446.192102807924	583.542068056936	975.896396913293	1497.841229706753	401.847535804851	988.737546943583	949.762268196473	558.529921191178	987.309675514585	964.030712789769	284.237814838806	1077.536712033106	790.815333514054	537.450852999869	1042.064225174468	668.729206522850	613.083886292920	1139.405971048438	634.563311752078	540.280051914520	1163.859454230110	521.635781312087	564.527245999689	1025.549294528018	750.693153356085	317.093563738571	929.600854532867	640.060328848260	258.748570237324	1005.980869024942	558.081659329211	324.958539795968	1001.948329755479	489.978429460513	336.748779243096	975.734225616186	419.676903904957	328.776302220188	886.799560823918	304.875797537813	279.023713183104	935.341631681332	195.065588245325	353.989025387411	1090.074754341344	443.527183103403	567.037209908347	966.378532216868	399.207350550948	618.516455461129	960.965543147792	289.135715044483	569.864169926419	765.919357355846	221.010797610531	529.529137173596	934.135130609284	165.278673639801	579.035720677583	821.747687608841	159.411347329770	603.708628974617	998.465994337102	51.975837924442	602.425629143068	804.104550062813	39.744230306517	396.522706530635	880.501008574794	36.081907750992	317.889710952029	963.483574345661	96.273182788122	346.296294993234	1092.539409761606	40.986555788978	322.076967747147	952.992156617875	1089.847635135605	117.908636157380	1132.804699581701	899.333175087387	119.812640132523	970.490117296011	1102.453878224886	715.018010388417	1175.783168617807	944.542681599606	709.338633512069	
56	11.694285714286	766.756264278021	1017.771773481448	432.558429110827	972.452078802091	1434.911557441428	249.201078621891	1066.912542990373	1360.917423234037	414.191315319683	984.290826902029	1446.194824772501	583.489583738232	975.258097439769	1497.964397511813	401.686006008980	986.677434177032	950.322354435263	558.640769451368	985.895196981054	964.199393059422	284.188247911842	1077.299243111147	794.113857512099	537.465179792643	1044.274547129583	671.427957889783	613.094639512931	1141.720811326585	638.774815795953	539.846258220677	1168.762719084162	527.123347790826	564.276682603166	1021.349498228579	749.788528925928	317.817682950517	924.319359261678	640.273600006829	258.377456072079	999.143948503521	557.326662693334	324.875958145924	994.173702563624	489.489844434659	336.545208043478	968.093356711303	419.576388754285	328.450946549104	878.888697974130	304.962916421935	278.710512985070	927.255420762425	195.096852834580	353.767932453187	1098.153180231461	446.719326827565	567.223968925734	976.981114073005	396.706124576117	619.411268426437	976.558538907135	286.330764868989	570.965996714221	784.779198870721	208.907177278046	531.766160840950	955.859810549738	161.413497581535	580.827111020983	843.779743697008	150.002399801004	605.630365626101	1025.434237503366	51.125877533180	603.646846866751	795.813180983735	39.783654462172	396.488701941705	872.228379417230	36.060684340689	317.881445063386	955.220242252434	96.264152765994	346.216733851914	1084.266708227443	40.951515493080	322.061173590193	960.094420768806	1090.882705613734	116.037219255044	1150.573537424161	911.281703907325	119.349615236168	960.873979513035	1102.590867554931	715.186850075522	1151.786369660880	926.953423918234	713.283124885264	
57	11.706000000000	765.072464432714	1017.878036439376	432.046422473299	972.974140291810	1435.016791602835	249.223666076761	1066.069030004895	1360.682205958438	414.788586337178	982.482464905579	1446.003059509096	583.564750905982	974.644500370375	1497.913791233391	401.648399099960	984.705754647350	950.667884545991	558.866086206637	984.444919590172	964.183443638985	284.261352227295	1076.762525963282	796.830235574937	537.512478576514	1045.955965711696	673.640847627367	613.122367190453	1143.247755762129	642.226396253827	539.301437790301	1172.692605357707	532.095861753237	563.989734153272	1017.227447462796	748.844299324976	318.526107929044	919.141854240931	640.392408117287	258.053548782785	992.513703511361	556.534378338719	324.750369482090	986.659704235463	488.957530065379	336.301274186921	960.659317425772	419.399114090704	328.133361047518	871.106121280857	305.026936343788	278.409715619849	919.210790130026	195.071214780107	353.558749924986	1105.556288618951	449.506712364102	567.522725192591	987.435282519886	393.578466575755	620.571152183338	992.378137451788	283.115215485632	572.418724928922	804.666869156945	195.880555096104	534.450239784010	978.234740416510	157.312964478242	583.085101698533	866.827045360434	140.189803748889	608.124998969098	1053.250781661231	50.642147332860	605.728474743032	787.539381676743	39.820011644853	396.448989004147	863.960206243915	36.030270904179	317.874441399936	946.959734117431	96.244084065817	346.147678836330	1076.003172357433	40.915255900521	322.052643992356	966.942346663251	1091.934683144840	114.435826259149	1167.491064749643	923.969489575574	119.481801540791	951.936073467413	1102.669849299539	715.393890094234	1126.632158192896	910.385574503197	716.675731801569	
